<svg id="svg2255" width="817.33331" height="486.66666" viewBox="0 0 817.33331 486.66666">
  <defs id="defs2259"></defs>
  <sodipodi:namedview pagecolor="#ffffff" bordercolor="#666666" borderopacity="1" objecttolerance="10" gridtolerance="10" guidetolerance="10" inkscape:pageopacity="0" inkscape:pageshadow="2" inkscape:window-width="1440" inkscape:window-height="789" id="namedview2257" showgrid="false" inkscape:pagecheckerboard="true" inkscape:zoom="0.79282221" inkscape:cx="457.40973" inkscape:cy="239.9475" inkscape:window-x="0" inkscape:window-y="1" inkscape:window-maximized="1" inkscape:current-layer="layer1"></sodipodi:namedview>
  <g inkscape:groupmode="layer" id="layer1" inkscape:label="room111" style="opacity:1">
    <path style="fill:none;stroke:#000000;stroke-width:3.14576221px;stroke-linecap:butt;stroke-linejoin:miter;stroke-opacity:1" d="m 15.818767,409.51056 786.172423,2.11073 -0.69469,-246.59698 -38.2967,-1.13893 -0.0377,-9.9194 -70.18881,-66.936906 0.15414,-24.551537 -581.52305,3.214422 0.37773,33.973135 -59.817336,51.314476 -34.718949,-0.11517 z" id="path2809" inkscape:connector-curvature="0" sodipodi:nodetypes="cccccccccccc"></path>
  </g>
<desc>Created with Snap</desc><rect x="925" y="375" width="50" height="20" class="table" id="1" style="cursor: grab;" transform="matrix(1,0,0,1,-820,-232)"></rect><rect x="925" y="375" width="50" height="20" class="table" id="2" style="cursor: grab;" transform="matrix(1,0,0,1,-684,-226)"></rect><rect x="925" y="375" width="50" height="20" class="table" id="3" style="cursor: grab;" transform="matrix(1,0,0,1,-549,-208)"></rect><rect x="925" y="375" width="50" height="20" class="table" id="4" style="cursor: grab;" transform="matrix(1,0,0,1,-518,-279)"></rect><rect x="925" y="375" width="50" height="20" class="table" id="5" style="cursor: grab;" transform="matrix(1,0,0,1,-467,-95)"></rect></svg>
